<svg width="229" height="52" viewBox="0 0 229 52" fill="none" xmlns="http://www.w3.org/2000/svg">
<g clip-path="url(#clip0_1246_1118)">
<rect x="174" width="52" height="52" rx="6" fill="url(#paint0_linear_1246_1118)"/>
<path d="M219.673 18.59V33.4099C219.673 35.8366 218.373 38.09 216.272 39.325L203.402 46.7566C201.3 47.97 198.7 47.97 196.577 46.7566L183.707 39.325C181.605 38.1117 180.305 35.8582 180.305 33.4099V18.59C180.305 16.1633 181.605 13.9099 183.707 12.6749L196.577 5.24325C198.678 4.02992 201.278 4.02992 203.402 5.24325L216.272 12.6749C218.373 13.9099 219.673 16.1417 219.673 18.59Z" stroke="white" stroke-width="1.4" stroke-linecap="round" stroke-linejoin="round"/>
<path d="M200 23.8334C202.788 23.8334 205.048 21.5732 205.048 18.7851C205.048 15.9969 202.788 13.7368 200 13.7368C197.212 13.7368 194.952 15.9969 194.952 18.7851C194.952 21.5732 197.212 23.8334 200 23.8334Z" stroke="white" stroke-width="1.4" stroke-linecap="round" stroke-linejoin="round"/>
<path d="M208.667 36.0967C208.667 32.1967 204.788 29.0334 200 29.0334C195.212 29.0334 191.333 32.1967 191.333 36.0967" stroke="white" stroke-width="1.4" stroke-linecap="round" stroke-linejoin="round"/>
<circle cx="216.25" cy="13" r="9.75" fill="url(#paint1_linear_1246_1118)"/>
<path d="M216.25 18.4166C219.242 18.4166 221.667 15.9915 221.667 12.9999C221.667 10.0084 219.242 7.58325 216.25 7.58325C213.259 7.58325 210.833 10.0084 210.833 12.9999C210.833 15.9915 213.259 18.4166 216.25 18.4166Z" stroke="white" stroke-width="0.6" stroke-linecap="round" stroke-linejoin="round"/>
<path d="M214.083 8.125H214.625C213.569 11.2883 213.569 14.7117 214.625 17.875H214.083" stroke="white" stroke-width="0.6" stroke-linecap="round" stroke-linejoin="round"/>
<path d="M217.875 8.125C218.931 11.2883 218.931 14.7117 217.875 17.875" stroke="white" stroke-width="0.6" stroke-linecap="round" stroke-linejoin="round"/>
<path d="M211.375 15.1667V14.625C214.538 15.6813 217.962 15.6813 221.125 14.625V15.1667" stroke="white" stroke-width="0.6" stroke-linecap="round" stroke-linejoin="round"/>
<path d="M211.375 11.375C214.538 10.3187 217.962 10.3187 221.125 11.375" stroke="white" stroke-width="0.6" stroke-linecap="round" stroke-linejoin="round"/>
</g>
<path d="M22.8871 25.431C23.2351 26.4557 23.5831 27.1613 23.9311 27.548C24.2791 27.9347 24.8011 28.128 25.4971 28.128H25.7291L25.9901 30.564L25.7291 33H25.4971C24.1631 33 23.0998 32.4877 22.3071 31.463C21.5144 30.4383 20.7991 28.9883 20.1611 27.113L22.8871 25.431ZM9.92411 26.591C9.40211 27.867 9.01545 28.911 8.76411 29.723C8.53211 30.5157 8.41611 31.3663 8.41611 32.275C8.41611 35.1943 10.3108 36.654 14.1001 36.654C15.3954 36.654 16.5361 36.4317 17.5221 35.987C18.5274 35.5617 19.3008 34.9913 19.8421 34.276C20.4028 33.5607 20.6831 32.7873 20.6831 31.956C20.6831 31.0667 20.3641 29.7327 19.7261 27.954C19.1074 26.1753 18.7788 25.2183 18.7401 25.083L22.1331 23.227C23.4091 26.5137 24.0471 29.4233 24.0471 31.956C24.0471 33.7153 23.6218 35.32 22.7711 36.77C21.9204 38.2393 20.7411 39.3993 19.2331 40.25C17.7251 41.1007 16.0141 41.526 14.1001 41.526C12.3021 41.526 10.6974 41.1877 9.28611 40.511C7.89411 39.8343 6.80178 38.8387 6.00911 37.524C5.21645 36.2287 4.82011 34.682 4.82011 32.884C4.82011 32.478 4.82978 32.1687 4.84911 31.956C4.98445 30.042 5.66111 27.7897 6.87911 25.199L9.92411 26.591ZM11.7801 23.169C11.7801 23.169 12.4181 22.531 13.6941 21.255L14.6801 20.269L17.5511 23.169L14.6801 26.04L11.7801 23.169ZM31.7267 26.04C32.9253 26.8713 34.0177 27.5287 35.0037 28.012C35.9897 28.4953 36.705 28.737 37.1497 28.737C37.285 28.737 37.3913 28.708 37.4687 28.65C37.6233 28.534 37.7393 28.3697 37.8167 28.157C37.9133 27.925 37.9617 27.664 37.9617 27.374C37.9617 26.6393 37.749 25.9627 37.3237 25.344C36.9177 24.706 36.386 24.387 35.7287 24.387C34.6653 24.387 33.5053 25.895 32.2487 28.911C31.688 30.2837 30.8857 31.3083 29.8417 31.985C28.7977 32.6617 27.6087 33 26.2747 33H25.7237L25.8107 28.128H26.3617C27.7923 28.128 29.0103 27.2097 30.0157 25.373C31.0017 23.5557 31.9393 22.212 32.8287 21.342C33.7373 20.472 34.7427 20.037 35.8447 20.037C36.9273 20.037 37.8747 20.385 38.6867 21.081C39.4987 21.7577 40.1173 22.6567 40.5427 23.778C40.968 24.88 41.1807 26.0303 41.1807 27.229C41.1807 28.4083 40.968 29.491 40.5427 30.477C40.1367 31.4437 39.518 32.188 38.6867 32.71C38.242 33 37.6717 33.145 36.9757 33.145C35.2357 33.145 32.877 32.13 29.8997 30.1L31.7267 26.04ZM66.584 11.105C66.99 13.9663 67.2703 20.211 67.425 29.839C67.4443 32.0623 67.0867 33.986 66.352 35.61C65.6367 37.234 64.5733 38.481 63.162 39.351C61.7507 40.221 60.0687 40.656 58.116 40.656C56.55 40.656 55.1 40.337 53.766 39.699C52.4513 39.0803 51.3977 38.1813 50.605 37.002C49.8123 35.8227 49.416 34.4403 49.416 32.855C49.416 32.6423 49.4353 32.3233 49.474 31.898C49.648 29.9647 50.315 27.7123 51.475 25.141L54.578 26.562C54.0947 27.664 53.7177 28.6113 53.447 29.404C53.1957 30.1967 53.0507 31.0183 53.012 31.869C52.9733 33.0097 53.4277 33.9377 54.375 34.653C55.3223 35.3877 56.5693 35.755 58.116 35.755C60.0107 35.755 61.451 35.2813 62.437 34.334C63.4423 33.406 63.9257 31.9753 63.887 30.042C63.8097 26.9873 63.6357 23.7103 63.365 20.211C63.0943 16.6923 62.814 13.9567 62.524 12.004L66.584 11.105ZM73.9833 11.105C74.2153 12.787 74.3893 14.991 74.5053 17.717C74.6406 20.4237 74.7083 22.9177 74.7083 25.199C74.7083 25.9723 74.776 26.5717 74.9113 26.997C75.0466 27.403 75.2786 27.693 75.6073 27.867C75.936 28.041 76.4193 28.128 77.0573 28.128H77.1733L77.4343 30.564L77.1733 33H77.0573C74.892 33 73.3163 32.3717 72.3303 31.115C71.3443 29.839 70.8416 27.9347 70.8223 25.402C70.745 19.776 70.4646 15.31 69.9813 12.004L73.9833 11.105ZM77.2089 28.128H83.2409L83.5019 30.564L83.2409 33H77.2089V28.128ZM83.2479 28.128H89.2799L89.5409 30.564L89.2799 33H83.2479V28.128ZM89.3159 28.128H89.4609C90.9882 28.128 92.1676 28.0603 92.9989 27.925C93.8302 27.7897 94.4102 27.577 94.7389 27.287C95.0869 26.997 95.2802 26.6007 95.3189 26.098C95.3769 25.3053 95.2802 24.2517 95.0289 22.937L98.3349 22.299C98.6056 23.749 98.7409 25.3537 98.7409 27.113C98.7796 27.345 98.9536 27.577 99.2629 27.809C99.5916 28.0217 100.085 28.128 100.742 28.128H100.887L101.148 30.564L100.887 33H100.742C99.8526 33 99.0309 32.7777 98.2769 32.333C97.5422 31.869 96.9236 31.2697 96.4209 30.535L97.2039 30.709C96.6046 31.521 95.7249 32.1107 94.5649 32.478C93.4049 32.826 91.7036 33 89.4609 33H89.3159V28.128ZM89.1129 35.378L91.6649 37.959L89.1129 40.54L88.2429 39.67C87.6629 39.1093 87.0926 38.539 86.5319 37.959L89.1129 35.378ZM94.1589 35.378L96.7109 37.959L94.1589 40.54L93.2889 39.67C92.7089 39.1093 92.1386 38.539 91.5779 37.959L94.1589 35.378ZM117.117 28.128C117.619 28.128 118.025 27.983 118.335 27.693C118.663 27.3837 118.828 27.0067 118.828 26.562C118.828 26.098 118.634 25.3247 118.248 24.242C117.861 23.14 117.523 22.2507 117.233 21.574L120.51 19.776C120.877 20.53 121.264 21.6223 121.67 23.053C122.076 24.4643 122.279 25.7017 122.279 26.765C122.279 27.9057 122.056 28.9497 121.612 29.897C121.186 30.8443 120.577 31.5983 119.785 32.159C119.011 32.7197 118.122 33 117.117 33H117.03V28.128H117.117ZM109.229 33V28.128H109.403C110.35 28.128 111.056 27.6447 111.52 26.678C111.868 25.982 112.109 25.286 112.245 24.59C112.399 23.8747 112.486 23.4783 112.506 23.401L115.783 23.546C115.57 24.7447 115.464 25.634 115.464 26.214C115.464 26.8133 115.599 27.287 115.87 27.635C116.14 27.9637 116.546 28.128 117.088 28.128H117.146L117.407 30.564L117.146 33H117.088C116.063 33 115.183 32.739 114.449 32.217C113.733 31.6757 113.202 30.9217 112.854 29.955L113.695 29.926C113.057 30.9507 112.39 31.724 111.694 32.246C110.998 32.7487 110.205 33 109.316 33H109.229ZM100.964 33L100.703 30.564L100.964 28.128H101.109C101.65 28.128 102.201 28.012 102.762 27.78C103.322 27.5287 103.748 27.2387 104.038 26.91C104.656 26.214 105.159 25.0927 105.546 23.546L108.852 23.894L108.707 24.474C108.417 25.634 108.272 26.4267 108.272 26.852C108.272 27.7027 108.62 28.128 109.316 28.128H109.403L109.664 30.564L109.403 33H109.229C108.417 33 107.692 32.797 107.054 32.391C106.416 31.985 105.961 31.434 105.691 30.738C105.072 31.4727 104.366 32.0333 103.574 32.42C102.781 32.8067 101.94 33 101.051 33H100.964ZM113.956 11.25C114.69 11.946 115.406 12.6613 116.102 13.396L113.956 15.513C113.492 15.0297 112.776 14.324 111.81 13.396L113.956 11.25ZM116.74 14.469L119.176 16.905L116.74 19.341L114.304 16.905L116.74 14.469ZM111.23 14.469L113.666 16.905L111.23 19.341L108.794 16.905L111.23 14.469ZM124.671 37.292C126.933 36.8087 128.75 36.2867 130.123 35.726C131.515 35.1653 132.539 34.508 133.197 33.754C133.854 33 134.183 32.101 134.183 31.057C134.183 29.897 134.018 28.7757 133.69 27.693C133.38 26.6103 132.955 25.7403 132.414 25.083C131.872 24.4063 131.283 24.068 130.645 24.068C130.277 24.068 129.929 24.2033 129.601 24.474C129.291 24.7253 129.04 25.0443 128.847 25.431C128.673 25.8177 128.586 26.1753 128.586 26.504C128.586 26.7747 128.644 26.997 128.76 27.171C129.088 27.5577 129.813 27.8187 130.935 27.954C132.075 28.07 133.67 28.128 135.72 28.128H138.533L138.794 30.564L138.533 33L134.792 33.029C132.317 33.029 130.345 32.8357 128.876 32.449C127.406 32.043 126.391 31.2117 125.831 29.955C125.483 29.1623 125.309 28.2923 125.309 27.345C125.309 26.1463 125.56 24.967 126.063 23.807C126.565 22.6277 127.252 21.661 128.122 20.907C129.011 20.153 129.987 19.776 131.051 19.776C132.23 19.776 133.303 20.2787 134.27 21.284C135.256 22.2893 136.029 23.6233 136.59 25.286C137.15 26.9293 137.431 28.6887 137.431 30.564C137.431 32.42 136.976 34.0923 136.068 35.581C135.159 37.089 133.864 38.3457 132.182 39.351C130.5 40.3563 128.499 41.0717 126.179 41.497L124.671 37.292ZM138.443 28.128H144.475L144.736 30.564L144.475 33H138.443V28.128ZM160.722 28.128C161.225 28.128 161.631 27.983 161.94 27.693C162.269 27.3837 162.433 27.0067 162.433 26.562C162.433 26.098 162.24 25.3247 161.853 24.242C161.466 23.14 161.128 22.2507 160.838 21.574L164.115 19.776C164.482 20.53 164.869 21.6223 165.275 23.053C165.681 24.4643 165.884 25.7017 165.884 26.765C165.884 27.9057 165.662 28.9497 165.217 29.897C164.792 30.8443 164.183 31.5983 163.39 32.159C162.617 32.7197 161.727 33 160.722 33H160.635V28.128H160.722ZM152.834 33V28.128H153.008C153.955 28.128 154.661 27.6447 155.125 26.678C155.473 25.982 155.715 25.286 155.85 24.59C156.005 23.8747 156.092 23.4783 156.111 23.401L159.388 23.546C159.175 24.7447 159.069 25.634 159.069 26.214C159.069 26.8133 159.204 27.287 159.475 27.635C159.746 27.9637 160.152 28.128 160.693 28.128H160.751L161.012 30.564L160.751 33H160.693C159.668 33 158.789 32.739 158.054 32.217C157.339 31.6757 156.807 30.9217 156.459 29.955L157.3 29.926C156.662 30.9507 155.995 31.724 155.299 32.246C154.603 32.7487 153.81 33 152.921 33H152.834ZM144.569 33L144.308 30.564L144.569 28.128H144.714C145.255 28.128 145.806 28.012 146.367 27.78C146.928 27.5287 147.353 27.2387 147.643 26.91C148.262 26.214 148.764 25.0927 149.151 23.546L152.457 23.894L152.312 24.474C152.022 25.634 151.877 26.4267 151.877 26.852C151.877 27.7027 152.225 28.128 152.921 28.128H153.008L153.269 30.564L153.008 33H152.834C152.022 33 151.297 32.797 150.659 32.391C150.021 31.985 149.567 31.434 149.296 30.738C148.677 31.4727 147.972 32.0333 147.179 32.42C146.386 32.8067 145.545 33 144.656 33H144.569Z" fill="white"/>
<defs>
<linearGradient id="paint0_linear_1246_1118" x1="174" y1="0" x2="226" y2="52" gradientUnits="userSpaceOnUse">
<stop stop-color="#0D31AC"/>
<stop offset="1" stop-color="#0033DF" stop-opacity="0.62"/>
</linearGradient>
<linearGradient id="paint1_linear_1246_1118" x1="196.164" y1="-5.99067" x2="238.984" y2="26.595" gradientUnits="userSpaceOnUse">
<stop stop-color="#0D31AC"/>
<stop offset="1" stop-color="#5777E1"/>
</linearGradient>
<clipPath id="clip0_1246_1118">
<rect x="174" width="52" height="52" rx="6" fill="white"/>
</clipPath>
</defs>
</svg>
